Patient4_TMGait_0pt2_03_left_01_EMG.mot
version=1
nRows=23
nColumns=33
inDegrees=no
endheader
time	1LAddLong	2LGlutMax	3LGlutMed	4LIliopsoas	5LSemiMemb	6LBicFemLong	7LRecFem	8LVastMed	9LVastLat	10LGasMed	11LTibAnt	12lTibPost	13LPeroneusLong	14LSol	15LExtDigLong	16LFlexDigLong	17RAddLong	18RGlutMax	19RGlutMed	20RIliopsoas	21RSemiMemb	22RBicFemLong	23RRecFem	24RVastMed	25RVastLat	26RGasMed	27RTibAnt	28RTibPost	29RPeroneusLong	30RSol	31RExtDigLong	32RFlexDigLong
1.495	0.001221	0.16083	-0.082855	-0.003357	-0.056458	0.051117	0.034943	0.008392	-0.007629	0.075531	-0.023041	-0.003815	0.035706	0.021973	0.037231	-0.003967	-0.045166	0.029907	0.016327	-0.18555	0.033569	-0.10605	-0.062103	-0.008392	0.025635	-0.001526	-0.10544	0.012817	-0.032501	0.005646	-0.000458	-0.011597
1.496	0.006866	0.20554	0.018616	0.000305	0.043335	0.092316	-0.037994	0.002441	-0.007019	0.063782	-0.014954	0.004425	0.012817	0.032501	0.017853	0.003967	-0.024872	0.088654	-0.1535	-0.26627	0.016327	-0.000916	-0.054474	-0.017853	0.015564	-0.001373	-0.024719	0.011749	-0.07843	-0.024872	-0.000305	-0.006409
1.497	0.007782	0.2385	0.25574	0.005035	0.092316	0.1033	-0.003815	0	-0.025177	0.065155	-0.005035	0.002899	0.013733	0.019073	0.012207	-0.005646	0.007782	0.1152	0.019226	-0.32974	-0.000916	-0.021667	0.00885	-0.066376	0.011444	-0.002136	0.10635	0.005951	-0.030518	-0.048523	-0.002289	-0.002136
1.498	0.026703	0.27039	0.14587	-0.000153	0.069427	-0.01358	0.020294	0.002747	-0.014496	-0.098572	-0.002289	-0.022888	0.044556	-0.015564	0.014801	0.000458	0.027313	0.11307	-0.096741	-0.12451	-0.24887	-0.009308	0.021515	-0.08255	0.00885	-0.002441	0.094299	0.006866	-0.015106	-0.10223	-0.003357	-0.005493
1.499	0.002899	0.32562	0.11246	-0.011444	0.021667	-0.007477	0.005493	0.003662	0.040588	-0.18158	-0.001221	0.032806	0.049133	-0.058289	0.019836	0	0.04776	0.14175	-0.2417	0.20721	0.04837	-0.088501	0.04837	-0.028381	-0.00351	-0.010681	0.050659	0.001678	-0.048523	-0.16983	-0.003204	-0.001221
1.5	-0.006866	0.36224	0.11826	0.007935	-0.019531	-0.014343	0.025787	0.003967	0.043793	0.014496	0.004578	0.012054	0.078583	-0.099792	0.004883	0.01358	0.063171	0.14374	-0.31509	0.41443	0.12054	-0.092621	0.009003	-0.009766	0.002136	-0.000305	0.006866	0.000153	-0.018921	-0.13931	-0.008392	-0.007019
1.501	-0.015564	0.37872	0.066986	-0.001373	-0.036316	-0.12528	-0.015411	0.005341	-0.03067	0.11826	0.005188	-0.000305	0.059204	-0.063934	-0.012665	0.009766	0.04425	0.16449	-0.12711	0.57022	0.022278	-0.061646	0.026093	-0.018768	0.028687	-0.008545	-0.000916	-0.001831	-0.033264	-0.10315	-0.005951	-0.013428
1.502	-0.00061	0.31525	-0.043945	0.00412	-0.052338	-0.15442	-0.024261	0.008545	-0.058289	0.11444	0.003815	0.084381	0.072784	-0.00061	-0.003052	0.007477	0.047607	0.21164	-0.091095	0.50003	-0.017395	-0.082703	0.012054	-0.021515	0.022278	-0.005188	0.002594	-0.000458	-0.032959	-0.088348	-0.001831	-0.009766
1.503	-0.005493	0.26382	-0.080109	0.011292	-0.035706	-0.076599	0.011597	-0.007324	-0.03952	0.10193	0.008545	-0.032043	-0.010071	0.089111	-0.004578	-0.003052	0.035706	0.2182	-0.021973	0.29739	0.041656	-0.074768	0.013275	-0.002289	0.009003	0.000153	-0.028992	-0.005951	-0.02655	-0.087738	-0.006256	-0.011139
1.504	-0.004272	0.20371	-0.15442	0.005493	0.027313	0.033112	0.005493	-0.007019	-0.010986	-0.012817	0.005035	0.011597	-0.099335	0.023956	-0.006256	0.007629	0.030975	0.22736	-0.098572	0.074768	-0.076141	-0.079956	-0.014038	0.009155	0.023956	-0.001373	-0.044556	-0.001678	-0.053711	-0.0737	-0.003052	-0.009155
1.505	-0.001984	0.22964	-0.027771	0.011749	0.021667	0.10376	-0.022125	0.009918	-0.034637	-0.10269	0.007477	-0.015869	-0.046844	0.003662	-0.01236	-0.008545	0.010376	0.22934	0.001831	-0.068359	-0.052185	-0.087891	0.033264	0.011292	0.036926	0.000763	-0.019073	-0.007477	-0.036316	-0.08316	-0.00412	-0.009918
1.506	-0.008545	0.18753	0.028992	-0.004272	0.014191	0.12894	-0.014954	0.006409	0.13519	-0.056	0.012512	-0.02655	-0.024872	-0.03418	-0.016174	0.008545	0.014801	0.21042	0.055847	-0.057678	-0.065765	-0.010071	0.01709	-0.016022	0.042572	-0.000763	-0.01709	-0.00824	-0.023804	-0.073853	-0.002899	-0.01297
1.507	0.007172	0.12161	-0.051727	0.006256	-0.005188	0.16739	0.034485	0.002899	0.12207	-0.029907	0.018616	-0.014801	-0.028076	0.014954	-0.007477	0.001831	0.008392	0.24262	-0.11551	-0.002594	-0.066376	0.035095	0.001526	-0.015564	0.045166	0.003815	0.002747	-0.005035	-0.049896	-0.081329	-0.004883	-0.009003
1.508	-0.004272	0.10635	-0.17868	0.010071	0.024719	0.13611	0.03067	-0.002899	-0.027161	-0.009155	0.015717	-0.005646	-0.026245	0.002899	0.00412	-0.006561	0.027161	0.21881	-0.074921	-0.014954	-0.033722	0.085602	0.023193	-0.028229	0.002441	-0.00351	0.031433	-0.006104	-0.084839	-0.079193	-0.00473	-0.010529
1.509	0.010071	0.024719	-0.17685	0.000763	0.032806	0.036926	-0.010071	0.001221	-0.040894	0.002899	0.00824	-0.005646	0.014038	-0.027924	0.020142	-0.000916	0.045471	0.2272	-0.049744	-0.05188	-0.027924	0.13382	0.049133	-0.070953	0.002899	-0.005188	-0.056458	-0.005341	-0.047455	-0.070496	-0.002899	-0.012665
1.51	0.00473	-0.05188	-0.13733	0.004578	0.002899	0.040131	-0.024872	0.002289	0.013733	-0.012817	0.008392	-0.003662	0.019226	-0.017242	0.067902	-0.009155	0.046387	0.27481	0.067596	-0.098572	-0.11749	0.050354	0.054779	-0.064087	0.002136	-0.003052	-0.038605	-0.003967	-0.018311	-0.052185	-0.003052	-0.011749
1.511	-0.00824	-0.11108	-0.11475	0.00473	-0.036011	-0.006409	0.004883	-0.005951	0.018158	-0.014038	-0.003052	0.000458	0.04837	0.00473	-0.017548	-0.005951	0.058289	0.24979	0.18799	-0.12787	-0.11643	-0.032043	0.070343	-0.099945	0.000916	0	0.021667	-0.003967	-0.007019	-0.099792	-0.003357	-0.010071
1.512	0.001526	-0.061951	-0.075378	0.008087	-0.037537	-0.18951	-0.01236	-0.000305	0.021362	-0.000305	0.005341	0.001984	0.011597	-0.036316	-0.098572	0.006104	0.051117	0.30136	0.22507	-0.11246	0.05249	-0.057678	0.043793	-0.095978	0.001678	0.000305	0.040741	-0.006561	0.004272	-0.1651	-0.002899	-0.002899
1.513	-0.002899	-0.010071	-0.087585	0.014648	-0.048981	-0.13962	-0.008545	-0.001831	0.05127	0.001984	0.029297	0.005341	0.037689	-0.002441	-0.07309	0.001221	0.049744	0.31052	0.15442	-0.096588	0.067291	-0.062256	0.0383	-0.085297	0.00473	-0.001526	-0.002289	-0.004883	0.055389	-0.061493	0.000458	-0.009766
1.514	-0.003967	-0.005035	-0.039215	0.004272	-0.089111	-0.08316	0.00473	0.003357	0.071716	0.00412	0.013885	0.000305	0.013885	0.015869	-0.035095	0.004883	0.018616	0.29266	-0.046692	-0.049133	0.12161	0.006866	0.052948	-0.10529	-0.008698	0.001221	-0.034027	-0.003967	0.042572	0.008087	-0.002899	-0.006409
1.515	-0.00473	0.006104	0.009918	-0.011749	-0.069427	-0.023346	-0.000916	-0.002899	0.025177	-0.002136	-0.002594	0.005646	0.017395	0.007782	-0.003357	-0.003052	0.020447	0.23895	-0.177	-0.025635	0.037537	0.10834	0.027008	-0.046539	0.003815	0.001678	-0.12848	-0.005035	0.023346	0.029144	-0.001831	-0.003357
1.516	0.006256	0.034943	-0.070496	0.009308	-0.015259	-0.052185	-0.007477	0.002289	0.015106	-0.005493	0.001984	0.00412	-0.004883	0.00824	0.040894	-0.015717	0.006714	0.25207	-0.062103	0.000153	-0.078125	0.14801	-0.0177	-0.041199	0.016479	0.001526	-0.057068	-0.000305	-0.015869	-0.019989	-0.005493	-0.006409
1.517	-0.001221	0.016632	-0.10986	0.018005	0.091858	-0.081787	-0.023041	-0.001678	0.027008	-0.011139	0.003967	0.00473	0.013885	0.047913	0.079956	-0.010986	0.025787	0.21027	0.066986	-0.025482	-0.30395	0.14847	0.031433	-0.077667	0.018616	-0.001068	-0.090942	-0.000458	-0.040588	-0.025482	-0.003662	-0.007935
